<?xml version="1.0" standalone="no"?>
<!DOCTYPE svg PUBLIC "-//W3C//DTD SVG 20010904//EN"
 "http://www.w3.org/TR/2001/REC-SVG-20010904/DTD/svg10.dtd">
<svg version="1.0" xmlns="http://www.w3.org/2000/svg"
 width="512.000000pt" height="512.000000pt" viewBox="0 0 512.000000 512.000000"
 preserveAspectRatio="xMidYMid meet">

<g transform="translate(0.000000,512.000000) scale(0.100000,-0.100000)"
fill="#000000" stroke="none">
<path d="M3250 1885 l-905 -905 1105 2 1105 3 49 24 c63 31 116 84 147 147 20
40 24 64 24 134 0 131 -10 145 -285 425 -337 341 -322 308 -330 753 l-5 322
-905 -905z"/>
<path d="M2012 647 l-122 -122 21 -62 c66 -196 235 -358 444 -427 121 -39 295
-39 413 0 288 96 482 358 482 651 l0 83 -558 0 -557 0 -123 -123z"/>
</g>
</svg>
