<?xml version="1.0" standalone="no"?>
<!DOCTYPE svg PUBLIC "-//W3C//DTD SVG 20010904//EN"
 "http://www.w3.org/TR/2001/REC-SVG-20010904/DTD/svg10.dtd">
<svg version="1.0" xmlns="http://www.w3.org/2000/svg"
 width="600.000000pt" height="600.000000pt" viewBox="0 0 600.000000 600.000000"
 preserveAspectRatio="xMidYMid meet">

<g transform="translate(0.000000,600.000000) scale(0.100000,-0.100000)"
fill="#000000" stroke="none">
<path d="M3345 2036 c-17 -7 -44 -28 -59 -47 -25 -29 -28 -39 -24 -88 6 -69
37 -99 134 -131 38 -12 79 -29 92 -36 41 -26 22 -81 -34 -98 -29 -9 -75 10
-99 41 -19 23 -23 24 -63 14 -48 -13 -51 -22 -20 -67 31 -46 88 -69 168 -69
109 0 170 53 170 149 0 68 -41 109 -133 137 -90 26 -117 43 -117 73 0 58 83
76 128 28 24 -25 31 -27 62 -19 50 12 55 21 34 56 -37 62 -161 91 -239 57z"/>
<path d="M4965 2036 c-39 -18 -63 -45 -75 -87 -25 -85 21 -147 133 -180 115
-34 148 -93 69 -126 -32 -13 -39 -13 -68 1 -18 8 -40 26 -49 39 -15 23 -18 24
-57 12 -23 -6 -43 -16 -45 -22 -2 -5 7 -25 19 -43 83 -123 318 -94 343 43 16
84 -25 134 -136 168 -87 26 -109 42 -109 80 0 65 120 65 141 0 3 -8 18 -7 52
5 l48 16 -18 31 c-32 54 -66 71 -146 74 -46 2 -83 -2 -102 -11z"/>
<path d="M977 1807 c-42 -127 -77 -235 -77 -239 0 -5 22 -8 49 -8 l49 0 17 50
17 50 87 0 87 0 13 -50 13 -50 54 0 c30 0 54 2 54 4 0 5 -127 380 -147 434
l-16 42 -61 0 -61 0 -78 -233z m192 -47 c1 -12 -11 -15 -55 -15 -44 0 -54 3
-51 15 2 8 15 53 28 98 l24 84 27 -84 c14 -45 27 -90 27 -98z"/>
<path d="M1390 1800 l0 -240 50 0 49 0 3 98 3 97 98 3 97 3 0 39 0 40 -100 0
-100 0 0 60 0 60 105 0 105 0 0 40 0 40 -155 0 -155 0 0 -240z"/>
<path d="M1750 2000 l0 -40 65 0 65 0 0 -200 0 -200 50 0 50 0 0 200 0 200 70
0 70 0 0 40 0 40 -185 0 -185 0 0 -40z"/>
<path d="M2180 1800 l0 -240 160 0 160 0 0 45 0 45 -110 0 -110 0 0 55 0 55
95 0 95 0 0 45 0 45 -95 0 -95 0 0 55 0 55 105 0 105 0 0 40 0 40 -155 0 -155
0 0 -240z"/>
<path d="M2570 1800 l0 -240 56 0 55 0 -3 90 -3 90 37 0 c37 0 38 -1 83 -90
l45 -90 56 0 55 0 -42 78 c-23 42 -48 85 -55 95 -11 17 -7 24 32 61 41 40 44
46 44 97 0 66 -24 109 -73 132 -27 13 -64 17 -161 17 l-126 0 0 -240z m240
140 c11 -11 20 -33 20 -50 0 -47 -30 -70 -94 -70 l-54 0 -4 70 -3 70 58 0 c44
0 62 -5 77 -20z"/>
<path d="M3780 1963 c-14 -43 -50 -151 -81 -240 l-56 -163 53 0 53 0 14 48 14
47 89 0 88 0 15 -47 15 -48 52 0 52 0 -80 240 -80 240 -61 0 -62 0 -25 -77z
m135 -191 c5 -27 5 -27 -50 -27 -30 0 -55 4 -55 8 0 4 12 49 27 99 l28 91 22
-72 c12 -40 24 -85 28 -99z"/>
<path d="M4150 1800 l0 -240 150 0 150 0 0 45 0 45 -100 0 -100 0 0 195 0 195
-50 0 -50 0 0 -240z"/>
<path d="M4510 1800 l0 -240 160 0 160 0 0 45 0 45 -110 0 -110 0 0 55 0 55
95 0 95 0 0 45 0 45 -95 0 -95 0 0 55 0 55 105 0 105 0 0 40 0 40 -155 0 -155
0 0 -240z"/>
<path d="M3000 1740 l0 -40 100 0 100 0 0 40 0 40 -100 0 -100 0 0 -40z"/>
<path d="M1763 1381 c-50 -23 -73 -63 -73 -127 0 -63 41 -104 133 -133 95 -29
107 -37 107 -71 0 -75 -117 -78 -158 -4 -7 13 -15 14 -50 4 -53 -14 -55 -39
-9 -85 106 -106 317 -48 317 87 0 78 -46 120 -163 149 -29 7 -55 21 -67 37
-25 31 -25 37 0 62 30 30 76 26 109 -8 24 -27 28 -28 65 -18 22 6 41 16 43 23
2 6 -10 27 -27 47 -51 57 -147 73 -227 37z"/>
<path d="M3686 1386 c-51 -19 -102 -70 -122 -123 -12 -32 -15 -65 -12 -132 3
-76 8 -95 31 -130 80 -121 298 -116 362 10 19 35 15 45 -22 52 -16 3 -36 9
-45 12 -12 5 -18 2 -18 -8 0 -8 -12 -26 -26 -41 -55 -54 -152 -25 -174 52 -34
125 13 237 102 237 33 0 45 -6 74 -38 34 -37 35 -37 79 -26 25 6 45 14 45 18
0 20 -45 74 -81 98 -49 32 -133 41 -193 19z"/>
<path d="M2110 1155 l0 -235 155 0 155 0 0 40 0 40 -110 0 -111 0 3 57 3 58
92 0 93 0 0 43 0 42 -96 0 -96 0 4 53 3 52 103 3 102 3 0 39 0 40 -150 0 -150
0 0 -235z"/>
<path d="M2500 1155 l0 -235 50 0 50 0 0 91 0 90 33 -3 c29 -3 36 -10 77 -90
l45 -88 53 0 54 0 -51 94 -51 94 34 26 c40 30 61 83 53 133 -15 92 -73 122
-234 123 l-113 0 0 -235z m230 135 c27 -27 25 -66 -5 -95 -19 -20 -34 -25 -75
-25 l-50 0 0 70 0 70 55 0 c42 0 60 -5 75 -20z"/>
<path d="M2893 1375 c4 -8 38 -114 77 -235 l71 -221 62 3 61 3 73 225 c40 124
73 228 73 232 0 5 -22 8 -49 8 l-48 0 -54 -175 -54 -175 -37 117 c-21 65 -45
144 -54 176 l-17 57 -54 0 c-44 0 -54 -3 -50 -15z"/>
<path d="M3370 1155 l0 -235 50 0 50 0 0 235 0 235 -50 0 -50 0 0 -235z"/>
<path d="M4030 1155 l0 -235 155 0 155 0 0 40 0 40 -105 0 -105 0 0 58 0 57
90 0 90 0 0 43 0 42 -90 0 -90 0 0 55 0 55 100 0 100 0 0 40 0 40 -150 0 -150
0 0 -235z"/>
</g>
</svg>
