<?xml version="1.0" standalone="no"?>
<!DOCTYPE svg PUBLIC "-//W3C//DTD SVG 20010904//EN"
 "http://www.w3.org/TR/2001/REC-SVG-20010904/DTD/svg10.dtd">
<svg version="1.0" xmlns="http://www.w3.org/2000/svg"
 width="600.000000pt" height="600.000000pt" viewBox="0 0 600.000000 600.000000"
 preserveAspectRatio="xMidYMid meet">

<g transform="translate(0.000000,600.000000) scale(0.100000,-0.100000)"
fill="#000000" stroke="none">
<path d="M2095 5229 c-88 -12 -197 -41 -270 -74 -194 -85 -374 -277 -449 -476
-56 -150 -56 -151 -56 -1022 0 -745 1 -808 19 -892 37 -177 117 -321 249 -446
88 -83 170 -135 287 -180 166 -65 129 -62 1055 -67 580 -2 879 0 954 8 404 41
693 298 783 695 14 60 17 181 20 825 5 811 2 879 -44 1025 -94 299 -332 518
-643 591 -68 16 -152 18 -955 20 -486 1 -911 -2 -950 -7z m1615 -372 c35 -8
56 -18 58 -27 1 -9 -58 -78 -139 -159 -212 -216 -214 -228 -51 -394 59 -60
119 -115 134 -123 33 -17 91 -18 121 -2 12 6 92 78 177 160 85 81 157 148 161
148 17 0 29 -70 29 -164 0 -118 -25 -203 -86 -294 -126 -191 -323 -271 -563
-230 -125 21 -83 55 -708 -572 -509 -510 -562 -560 -603 -571 -96 -25 -200 21
-247 111 -30 57 -32 154 -3 209 11 22 245 266 552 576 293 295 539 548 547
563 13 25 13 51 -5 232 -14 145 45 297 155 403 128 124 294 171 471 134z
m-757 -139 c10 -8 25 -47 36 -92 18 -74 18 -83 3 -130 -10 -32 -16 -88 -16
-152 l0 -101 -41 8 c-67 13 -217 10 -278 -6 -207 -54 -370 -233 -414 -455 -18
-93 -11 -185 24 -295 l26 -80 -149 -142 c-82 -78 -150 -140 -152 -139 -1 2 16
33 38 69 l42 66 -26 65 c-15 36 -29 79 -32 95 -9 43 -21 50 -113 63 -51 7 -92
19 -107 30 -24 19 -24 22 -24 177 0 189 0 188 112 202 118 14 110 8 154 116
21 54 40 100 42 103 1 3 -22 39 -53 79 -82 109 -81 115 55 240 61 55 117 101
124 101 8 0 52 -25 97 -55 45 -30 87 -55 93 -55 6 0 54 18 106 39 l95 38 15
97 c11 74 20 101 34 112 26 19 284 20 309 2z m967 -1092 c0 -103 -11 -114
-125 -132 -50 -8 -93 -18 -96 -22 -4 -4 -25 -51 -47 -104 l-41 -98 33 -47 c18
-27 44 -66 59 -87 18 -26 25 -46 21 -60 -7 -26 -202 -224 -227 -232 -13 -4
-47 13 -103 50 -46 31 -88 56 -94 56 -6 0 -32 -11 -58 -24 -26 -13 -67 -30
-90 -37 -50 -15 -57 -26 -66 -119 -11 -98 -21 -118 -69 -131 -24 -6 -96 -9
-169 -7 -154 4 -159 7 -192 126 l-23 81 122 120 c110 110 125 121 158 121 53
0 183 44 256 87 82 49 188 162 228 245 33 67 63 168 63 211 0 42 20 49 96 36
86 -15 222 -6 294 20 30 11 58 20 63 20 4 1 7 -32 7 -73z"/>
<path d="M2162 2955 c-95 -42 -64 -195 40 -195 32 0 47 7 74 34 38 38 44 77
19 127 -25 47 -73 60 -133 34z"/>
<path d="M3323 1771 c-76 -19 -119 -75 -110 -144 8 -58 47 -93 132 -118 82
-25 95 -33 95 -65 0 -61 -110 -70 -138 -11 -11 23 -19 27 -53 27 -35 0 -39 -2
-39 -25 0 -72 70 -125 165 -125 100 0 165 53 165 135 0 74 -33 105 -149 139
-65 19 -81 31 -81 61 0 54 87 69 124 22 17 -21 31 -27 59 -27 31 0 37 3 37 21
0 30 -28 74 -61 93 -33 20 -103 28 -146 17z"/>
<path d="M4821 1770 c-79 -19 -123 -90 -101 -162 14 -47 45 -71 128 -99 37
-12 73 -26 80 -32 32 -25 -3 -87 -51 -87 -29 0 -74 28 -80 50 -4 16 -13 20
-46 20 -37 0 -41 -2 -41 -25 0 -99 143 -157 257 -106 50 23 73 62 73 124 0 66
-25 91 -123 122 -89 29 -107 39 -107 64 0 32 25 53 64 54 31 1 43 -5 60 -26
17 -21 31 -27 59 -27 31 0 37 4 37 20 0 34 -28 79 -60 95 -38 19 -105 26 -149
15z"/>
<path d="M1106 1555 c-42 -119 -76 -220 -76 -225 0 -6 22 -10 48 -10 47 0 48
0 62 43 l15 42 82 3 81 3 14 -43 c14 -43 15 -43 66 -46 l51 -3 -28 78 c-15 43
-52 144 -81 226 l-53 147 -52 0 -52 0 -77 -215z m159 12 c14 -37 25 -70 25
-72 0 -3 -25 -5 -56 -5 -50 0 -55 2 -49 18 4 9 16 43 27 75 11 32 22 56 24 55
2 -2 15 -34 29 -71z"/>
<path d="M1495 1758 c-3 -8 -4 -108 -3 -223 l3 -210 53 -3 52 -3 0 85 0 85 78
3 77 3 0 35 0 35 -77 3 -78 3 0 54 0 54 88 3 87 3 0 40 0 40 -138 3 c-106 2
-139 0 -142 -10z"/>
<path d="M1817 1763 c-4 -3 -7 -21 -7 -40 l0 -33 60 0 60 0 0 -185 0 -185 55
0 55 0 0 185 0 185 55 0 55 0 0 40 0 40 -163 0 c-90 0 -167 -3 -170 -7z"/>
<path d="M2210 1545 l0 -225 140 0 140 0 0 40 0 40 -90 0 -90 0 0 55 0 55 80
0 80 0 0 35 0 35 -80 0 -80 0 0 50 0 49 88 3 87 3 3 43 3 42 -140 0 -141 0 0
-225z"/>
<path d="M2570 1546 l0 -226 50 0 50 0 0 80 c0 76 1 80 23 80 17 0 31 -17 65
-80 l43 -80 55 0 54 0 -30 53 c-17 28 -39 67 -48 85 -16 32 -16 33 10 55 36
30 48 58 48 112 0 106 -45 137 -207 143 l-113 4 0 -226z m200 124 c24 -24 26
-57 4 -88 -12 -17 -25 -22 -60 -22 l-44 0 0 65 0 65 40 0 c27 0 47 -7 60 -20z"/>
<path d="M3715 1758 c-3 -7 -18 -51 -34 -98 -16 -47 -50 -142 -75 -212 l-46
-128 53 0 53 0 12 45 12 45 80 0 81 0 19 -45 c19 -44 20 -45 65 -45 25 0 45 4
45 8 0 10 -146 418 -155 432 -9 15 -105 13 -110 -2z m89 -196 l24 -72 -54 0
c-30 0 -54 2 -54 3 0 4 34 104 45 136 8 20 11 13 39 -67z"/>
<path d="M4038 1763 c-4 -7 -3 -316 1 -411 l1 -33 138 3 137 3 0 40 0 40 -87
3 -88 3 -2 177 -3 177 -47 3 c-25 2 -48 -1 -50 -5z"/>
<path d="M4380 1545 l0 -225 140 0 140 0 0 40 0 40 -90 0 -90 0 0 55 0 55 80
0 80 0 0 35 0 35 -80 0 -80 0 0 50 0 50 90 0 90 0 0 45 0 45 -140 0 -140 0 0
-225z"/>
<path d="M2950 1505 l0 -35 95 0 95 0 0 35 0 35 -95 0 -95 0 0 -35z"/>
<path d="M1849 1161 c-68 -22 -99 -63 -99 -129 0 -55 30 -97 84 -116 25 -9 66
-23 91 -32 48 -17 63 -41 45 -74 -23 -42 -140 -19 -140 28 0 8 -18 12 -46 12
l-46 0 6 -32 c14 -70 61 -106 150 -115 63 -7 135 21 161 61 24 36 23 110 -2
144 -22 31 -71 57 -123 67 -49 9 -80 32 -80 58 0 34 13 47 53 54 30 4 40 1 60
-21 19 -20 34 -26 66 -26 28 0 41 4 41 14 0 24 -45 81 -75 95 -36 17 -110 23
-146 12z"/>
<path d="M3625 1156 c-109 -40 -161 -176 -120 -313 41 -138 220 -188 330 -92
19 17 36 38 39 47 2 9 7 27 11 40 6 21 3 22 -40 22 -40 0 -51 -5 -79 -35 -83
-88 -189 -1 -171 141 14 111 102 152 171 79 27 -29 40 -35 73 -35 36 0 41 3
41 24 0 34 -40 87 -84 109 -50 26 -120 31 -171 13z"/>
<path d="M2140 935 l0 -225 141 0 140 0 -3 43 -3 42 -87 3 -88 3 0 49 0 50 81
0 80 0 -3 38 -3 37 -77 3 -78 3 0 44 0 44 88 3 87 3 3 43 3 42 -140 0 -141 0
0 -225z"/>
<path d="M2494 1147 c-2 -7 -3 -107 -2 -222 l3 -210 50 0 50 0 3 78 c3 72 4
77 25 77 17 0 30 -16 62 -78 l40 -77 53 -3 c28 -2 52 1 52 5 0 5 -21 44 -46
87 -40 69 -44 80 -30 88 33 19 55 52 62 94 12 85 -21 143 -92 163 -57 16 -223
14 -230 -2z m201 -81 c13 -9 19 -26 19 -51 0 -46 -23 -65 -76 -65 l-38 0 0 65
0 65 38 0 c21 0 47 -6 57 -14z"/>
<path d="M2865 1143 c10 -25 145 -426 145 -430 0 -2 25 -3 56 -1 l56 3 74 214
c41 118 74 218 74 223 0 4 -22 8 -49 8 -39 0 -51 -4 -55 -17 -22 -76 -90 -290
-94 -298 -4 -5 -29 62 -57 150 l-51 160 -53 3 c-48 3 -53 1 -46 -15z"/>
<path d="M3330 935 l0 -225 50 0 50 0 0 225 0 225 -50 0 -50 0 0 -225z"/>
<path d="M3950 935 l0 -225 140 0 140 0 0 45 0 45 -90 0 -90 0 0 50 0 50 80 0
80 0 0 40 0 40 -80 0 -80 0 0 45 0 44 88 3 87 3 3 43 3 42 -140 0 -141 0 0
-225z"/>
</g>
</svg>
