<?xml version="1.0" standalone="no"?>
<!DOCTYPE svg PUBLIC "-//W3C//DTD SVG 20010904//EN"
 "http://www.w3.org/TR/2001/REC-SVG-20010904/DTD/svg10.dtd">
<svg version="1.0" xmlns="http://www.w3.org/2000/svg"
 width="1024.000000pt" height="1024.000000pt" viewBox="0 0 1024.000000 1024.000000"
 preserveAspectRatio="xMidYMid meet">

<g transform="translate(0.000000,1024.000000) scale(0.100000,-0.100000)"
fill="#000000" stroke="none">
<path d="M5793 3498 c-72 -8 -114 -27 -165 -76 -69 -66 -86 -181 -41 -268 32
-63 89 -98 231 -143 143 -45 172 -66 172 -122 0 -73 -95 -119 -183 -90 -33 11
-82 56 -104 95 -7 14 -16 13 -78 -5 -39 -12 -73 -24 -77 -28 -13 -12 38 -106
73 -135 66 -57 113 -71 234 -71 95 0 117 3 163 24 72 32 127 97 143 166 22 99
-5 179 -81 234 -41 30 -70 41 -207 81 -96 27 -133 59 -133 111 0 104 141 132
218 44 16 -18 31 -38 33 -44 3 -8 30 -3 81 15 l78 26 -16 36 c-19 47 -68 98
-117 123 -48 25 -143 36 -224 27z"/>
<path d="M8486 3480 c-95 -37 -148 -113 -149 -215 -1 -80 30 -145 87 -184 23
-16 92 -45 153 -64 163 -52 183 -66 183 -125 -1 -44 -14 -63 -57 -85 -79 -41
-180 -2 -231 88 -8 16 -14 15 -82 -4 -40 -11 -75 -22 -78 -25 -2 -3 8 -31 24
-63 55 -111 158 -159 318 -151 72 4 102 11 142 31 101 51 152 143 141 254 -10
98 -74 157 -216 199 -182 54 -211 74 -211 139 0 40 43 81 94 91 49 9 120 -25
142 -68 9 -18 17 -34 19 -35 5 -7 155 50 155 58 0 24 -43 90 -77 118 -21 18
-60 38 -87 46 -71 21 -209 19 -270 -5z"/>
<path d="M1670 3088 c-74 -222 -136 -409 -138 -415 -3 -10 18 -13 85 -13 l90
0 23 78 c12 42 25 80 29 84 3 4 71 8 150 9 l144 1 26 -83 27 -84 93 -3 c85 -3
92 -1 87 15 -3 10 -66 196 -140 413 l-134 395 -103 3 -104 2 -135 -402z m319
-50 l18 -58 -102 0 -102 0 51 165 51 164 33 -107 c18 -59 41 -133 51 -164z"/>
<path d="M2380 3075 l0 -415 85 0 85 0 0 168 0 168 165 0 165 -1 0 73 0 72
-165 0 -165 0 0 103 0 102 172 0 171 0 1 73 1 72 -257 0 -258 0 0 -415z"/>
<path d="M2980 3415 l0 -75 115 0 115 0 0 -340 0 -340 85 0 85 0 0 340 0 340
115 0 115 0 0 75 0 75 -315 0 -315 0 0 -75z"/>
<path d="M3720 3075 l0 -415 275 0 275 0 0 75 0 75 -190 0 -190 0 0 100 0 100
164 0 164 0 -2 73 -1 72 -162 3 -163 2 0 90 0 90 180 0 180 0 0 75 0 75 -265
0 -265 0 0 -415z"/>
<path d="M4390 3075 l0 -415 90 0 90 0 0 155 0 155 60 0 60 0 77 -155 78 -155
93 0 c86 0 94 2 87 18 -3 9 -44 86 -91 170 -46 84 -84 155 -84 158 0 2 7 4 16
4 8 0 39 24 69 53 45 46 55 62 65 113 23 105 -16 215 -92 262 -65 41 -140 52
-335 52 l-183 0 0 -415z m362 265 c52 -15 78 -52 78 -110 0 -90 -58 -130 -187
-130 l-78 0 0 125 0 125 75 0 c41 0 92 -5 112 -10z"/>
<path d="M6495 3478 c-16 -45 -275 -811 -275 -814 0 -2 40 -4 89 -4 l88 0 23
78 c12 42 25 80 29 84 3 4 71 8 151 9 l144 1 29 -86 29 -86 89 0 c49 0 89 1
89 3 0 1 -63 187 -139 412 l-138 410 -102 3 c-76 2 -103 -1 -106 -10z m153
-336 l49 -162 -102 0 -102 0 26 83 c15 45 38 119 52 164 13 45 25 81 26 79 1
-1 24 -75 51 -164z"/>
<path d="M7080 3075 l0 -415 260 0 260 0 0 75 0 75 -175 0 -175 0 0 340 0 340
-85 0 -85 0 0 -415z"/>
<path d="M7700 3075 l0 -415 275 0 275 0 0 75 0 75 -190 0 -190 0 0 100 0 100
165 0 165 0 0 75 0 75 -165 0 -165 0 0 90 0 90 180 0 180 0 0 75 0 75 -265 0
-265 0 0 -415z"/>
<path d="M5115 2970 l0 -70 170 0 170 0 0 70 0 70 -170 0 -170 0 0 -70z"/>
<path d="M3047 2376 c-103 -29 -167 -113 -167 -221 0 -119 63 -189 211 -234
124 -37 162 -53 186 -77 33 -33 30 -78 -5 -114 -69 -69 -188 -41 -252 58 l-15
23 -68 -17 c-38 -9 -71 -22 -73 -29 -7 -18 18 -75 51 -113 15 -18 51 -45 79
-59 43 -23 67 -28 151 -31 85 -3 109 -1 158 18 106 40 156 105 164 215 9 122
-57 189 -243 243 -151 45 -192 79 -173 146 13 48 43 66 106 66 51 0 59 -3 93
-37 20 -21 39 -43 41 -50 3 -9 22 -7 74 9 39 11 73 23 77 27 13 12 -29 86 -70
123 -22 20 -58 42 -79 48 -61 18 -192 22 -246 6z"/>
<path d="M6318 2376 c-184 -53 -282 -220 -265 -450 11 -148 51 -231 145 -303
64 -48 136 -66 246 -61 103 6 160 26 220 79 35 31 96 122 96 144 0 6 -30 19
-67 29 -38 10 -75 21 -84 23 -11 3 -18 -3 -23 -20 -9 -37 -55 -88 -93 -103
-85 -36 -177 -1 -226 84 -25 45 -30 67 -35 141 -8 152 33 252 121 292 54 24
88 24 136 -1 35 -17 91 -72 91 -88 1 -29 19 -30 95 -8 89 26 91 31 51 95 -32
51 -100 110 -154 133 -58 26 -188 33 -254 14z"/>
<path d="M3600 1970 l0 -400 263 0 262 0 0 70 0 70 -182 0 -183 0 0 95 0 95
160 0 160 0 0 75 0 75 -160 0 -160 0 0 90 0 90 174 0 174 0 4 70 3 70 -257 0
-258 0 0 -400z"/>
<path d="M4260 1970 l0 -400 85 0 85 0 0 150 0 150 60 0 60 0 75 -150 75 -150
90 0 c50 0 90 2 90 6 0 3 -38 75 -85 161 -47 85 -85 156 -83 157 87 61 101 74
124 123 22 45 26 63 22 120 -5 84 -29 137 -81 174 -69 50 -120 59 -329 59
l-188 0 0 -400z m351 260 c56 -16 74 -42 74 -110 0 -47 -4 -63 -23 -83 -29
-30 -90 -47 -171 -47 l-61 0 0 125 0 125 73 0 c39 0 88 -5 108 -10z"/>
<path d="M4955 2298 c13 -40 70 -219 128 -398 l104 -325 106 -3 106 -3 60 188
c33 103 91 284 129 401 l69 212 -88 0 c-75 0 -88 -3 -93 -17 -3 -10 -39 -128
-80 -263 -42 -135 -79 -260 -82 -278 -9 -44 -21 -48 -28 -9 -3 17 -44 151 -89
297 l-84 265 -90 3 -91 3 23 -73z"/>
<path d="M5750 1970 l0 -400 85 0 85 0 0 400 0 400 -85 0 -85 0 0 -400z"/>
<path d="M6880 1970 l0 -400 260 0 260 0 0 70 0 70 -177 0 -178 0 0 95 0 95
158 0 157 0 0 75 0 75 -157 0 -158 0 0 90 0 90 173 0 172 0 0 70 0 70 -255 0
-255 0 0 -400z"/>
</g>
</svg>
